<svg width="32" height="32" viewBox="0 0 32 32" fill="none" xmlns="http://www.w3.org/2000/svg">
<g clip-path="url(#clip0_3571_187920)">
<path d="M15.9951 31.9963C24.8278 31.9963 31.9881 24.8337 31.9881 15.9981C31.9881 7.16262 24.8278 0 15.9951 0C7.1624 0 0.0020752 7.16262 0.0020752 15.9981C0.0020752 24.8337 7.1624 31.9963 15.9951 31.9963Z" fill="#FFC800"/>
<path d="M22.8779 27.9176C17.4466 31.0527 11.5562 31.6145 7.7937 29.7366C12.6108 32.6078 18.7959 32.8561 23.9945 29.8545C29.1932 26.8498 32.0717 21.3681 31.9942 15.7591C31.7398 19.9589 28.3092 24.7826 22.8779 27.9176Z" fill="black"/>
<path d="M18.0236 1.17329C19.1247 3.07917 16.4633 6.67984 12.0773 9.20962C7.69136 11.7394 3.24644 12.2485 2.14529 10.3395C2.09876 10.2495 2.05534 10.1501 2.02432 10.0477C1.73895 9.15996 2.08015 8.01147 2.90214 6.80089C3.03552 6.61155 3.172 6.42531 3.31158 6.24217C4.55231 4.62497 6.12494 3.22195 7.99844 2.14175C9.87195 1.05845 11.8726 0.400391 13.8919 0.133445C14.1277 0.0993008 14.3572 0.0744693 14.5805 0.0589492C16.0384 -0.0496918 17.2016 0.229671 17.8281 0.918765C17.9026 1.00257 17.9677 1.08638 18.0236 1.17329Z" fill="black"/>
<path d="M24.8227 3.23749C26.7459 6.56811 22.8655 12.4068 16.1593 16.2806C9.45317 20.1544 2.45544 20.5952 0.535409 17.2646C0.215921 16.709 0.0453206 16.0913 0.0112004 15.427C-0.0725489 17.665 0.312078 19.9402 1.20851 22.1007C1.34189 22.4235 1.48767 22.7432 1.64276 23.0598C1.64897 23.0722 1.65827 23.0877 1.66448 23.1001C2.24452 24.1027 3.10062 24.8912 4.16765 25.4623C7.93017 27.4768 14.292 26.7846 20.2413 23.3485C26.1875 19.9123 29.9687 14.7503 30.1082 10.4854C30.1486 9.28102 29.8973 8.14806 29.3235 7.14545C29.1063 6.81953 28.8799 6.49982 28.6411 6.19562C27.2297 4.37046 25.4741 2.91777 23.5231 1.88103C24.0659 2.23799 24.5063 2.68807 24.8227 3.23749C24.8227 3.23749 24.8258 3.24059 24.8258 3.24369L24.8227 3.23749Z" fill="black"/>
<path d="M15.9983 31.9963C24.831 31.9963 31.9913 24.8337 31.9913 15.9981C31.9913 7.16262 24.831 0 15.9983 0C7.16563 0 0.00531006 7.16262 0.00531006 15.9981C0.00531006 24.8337 7.16563 31.9963 15.9983 31.9963Z" fill="url(#paint0_radial_3571_187920)"/>
</g>
<defs>
<radialGradient id="paint0_radial_3571_187920" cx="0" cy="0" r="1" gradientUnits="userSpaceOnUse" gradientTransform="translate(15.9968 15.9995) scale(15.9926 16.004)">
<stop offset="0.5" stop-color="white" stop-opacity="0"/>
<stop offset="1" stop-color="white" stop-opacity="0.35"/>
</radialGradient>
<clipPath id="clip0_3571_187920">
<rect width="32" height="32" fill="white"/>
</clipPath>
</defs>
</svg>
